<?xml version="1.0" encoding="UTF-8"?>
<svg width="64px" height="64px" viewBox="0 0 64 64" version="1.1" xmlns="http://www.w3.org/2000/svg" xmlns:xlink="http://www.w3.org/1999/xlink">
    <title>64x64</title>
    <g id="Page-1" stroke="none" stroke-width="1" fill="none" fill-rule="evenodd">
        <g id="Artboard" transform="translate(-763.000000, -17.000000)">
            <g id="64x64" transform="translate(763.000000, 17.000000)">
                <rect id="Rectangle" x="0" y="0" width="64" height="64"></rect>
                <g id="Group" transform="translate(1.000000, 7.000000)" fill-rule="nonzero">
                    <circle id="Oval" fill="#059669" cx="24" cy="24" r="24"></circle>
                    <path d="M61.643783,12.052162 C60.7277964,12.3912148 59.7863658,12.6781057 58.8449352,12.9649966 C57.4455113,13.3562114 56.0206433,13.6691833 54.5703313,13.8517502 C53.6289006,13.9821551 52.68747,14.1125601 51.7460394,14.216884 C51.0844935,14.295127 50.3975036,14.3994509 49.7359578,14.4516129 C49.0489678,14.5298559 48.3619779,14.5820178 47.674988,14.6341798 C46.8862218,14.7124228 46.0974556,14.7906658 45.3086894,14.8167467 C44.1128181,14.8949897 42.9169467,14.9471517 41.7210754,14.9993137 C40.525204,15.0514756 39.3547768,15.0775566 38.1589054,15.1036376 C37.2429189,15.1297186 36.3269323,15.1297186 35.4363898,15.1297186 C34.5458473,15.1297186 33.6044167,15.1297186 32.6884301,15.1036376 C31.4925588,15.0775566 30.2966875,15.0514756 29.1262602,14.9993137 C27.9303889,14.9471517 26.7345175,14.8949897 25.5386462,14.8167467 C24.74988,14.7645848 23.9611138,14.6863418 23.1723476,14.6341798 C22.4853577,14.5820178 21.7983677,14.5298559 21.1113778,14.4516129 C20.449832,14.3733699 19.7628421,14.295127 19.1012962,14.216884 C18.1598656,14.0864791 17.2184349,13.9560741 16.2770043,13.8517502 C14.8266923,13.6691833 13.4018243,13.3562114 12.0024004,12.9649966 C11.0609698,12.7041867 10.1195391,12.4172958 9.20355257,12.052162 C9.15266443,12.026081 9.10177628,12.026081 9,12 C9.15266443,12.4433768 9.27988478,12.8345916 9.43254921,13.2518874 C9.71243399,13.3562114 9.99231877,13.4866163 10.2722036,13.5909403 C10.3230917,13.7474262 10.3739798,13.8778312 10.424868,14.0082361 C10.5266443,14.0603981 10.6284205,14.0864791 10.7556409,14.138641 C10.8828613,14.8167467 11.0355257,15.4948524 11.1881901,16.2251201 C11.4680749,16.2512011 11.7479597,16.3033631 12.0278445,16.3555251 C12.1550648,16.7206589 12.2568411,17.0857927 12.3586174,17.4509266 C12.6130581,17.5291695 12.8674988,17.5813315 13.1473836,17.6595745 C13.1473836,17.7378174 13.1728277,17.8421414 13.1728277,17.9464653 C13.8852616,18.1290323 14.6231397,18.2072752 15.3355737,18.4680851 C15.3610178,18.5724091 15.4119059,18.650652 15.4119059,18.728895 C15.4882381,19.0679478 15.5391263,19.3809197 15.6154585,19.7199725 C15.6409025,19.8764585 15.7172348,20.0329444 15.7681229,20.1633493 C15.819011,20.2937543 15.9207873,20.3719973 16.0734518,20.3719973 C16.4551128,20.3980782 16.8367739,20.4241592 17.2184349,20.4502402 C17.8799808,20.4763212 18.5669707,20.5024022 19.2285166,20.5024022 C20.5007201,20.5284832 21.7474796,20.5284832 23.0196831,20.5284832 C23.0960154,20.5284832 23.2486798,20.5284832 23.2486798,20.5284832 C23.2486798,20.893617 23.2486798,21.2326699 23.2486798,21.5717227 C23.5031205,21.6760467 23.5031205,21.5978037 24.0120019,21.6760467 C24.0120019,21.8846946 23.9865578,22.5628003 23.9356697,23.7103638 L15.3864618,23.7103638 L15.3864618,26.0054907 C19.1352216,26.0054907 21.900144,26.0054907 23.681229,26.0054907 C23.7321171,26.0054907 22.3072492,48.6959506 22.3072492,50 L25.9457513,50 C25.9457513,48.4351407 25.843975,27.7789979 25.843975,26.1880577 C25.843975,26.1098147 25.843975,26.0315717 25.843975,25.9272478 C26.0984157,25.9272478 26.0475276,25.9272478 26.1238598,25.9272478 C27.7522804,25.9272478 29.3807009,25.9272478 31.0091215,25.9011668 C32.0014402,25.9011668 32.993759,25.9011668 33.9860778,25.9011668 C34.4949592,25.9011668 35.0547288,25.9011668 35.5381661,25.9011668 C36.0216035,25.9011668 36.5559289,25.9011668 37.0648104,25.9011668 C38.0571291,25.9011668 39.0240038,25.9011668 40.0163226,25.9011668 C41.6447432,25.9011668 43.1968315,25.9011668 44.799808,25.9272478 C44.8761402,25.9272478 44.6980317,25.9272478 44.9524724,25.9272478 C44.9524724,26.0315717 44.9524724,26.1098147 44.9524724,26.1880577 C44.9524724,27.7789979 45.0796928,48.4351407 45.0796928,50 L48.7181949,50 C48.7181949,48.6959506 47.2933269,26.0054907 47.3442151,26.0054907 C50.0158425,26.0054907 52.5856937,26.0054907 55.3845415,26.0054907 C55.3845415,25.6577442 55.3845415,24.8666209 55.3845415,23.6321208 C55.6389822,23.6321208 52.8740598,23.6582018 47.0897744,23.7103638 C47.0388862,23.4495539 47.0134422,21.9890185 47.0134422,21.6760467 C47.0134422,21.5978037 47.5223236,21.6760467 47.7767643,21.5717227 C47.7767643,21.2326699 47.7767643,20.893617 47.7767643,20.5284832 C47.7767643,20.5284832 47.9294287,20.5284832 48.0057609,20.5284832 C49.2779645,20.5284832 50.524724,20.5024022 51.7714834,20.5024022 C52.4330293,20.5024022 53.1200192,20.4763212 53.7815651,20.4502402 C54.1632261,20.4241592 54.5448872,20.3980782 54.9265482,20.3719973 C55.0792127,20.3719973 55.180989,20.2937543 55.2318771,20.1633493 C55.2827652,20.0068634 55.3590975,19.8764585 55.3845415,19.7199725 C55.4608737,19.4070007 55.5117619,19.0679478 55.5880941,18.728895 C55.6135382,18.650652 55.6389822,18.5463281 55.6644263,18.4680851 C56.3768603,18.2072752 57.1147384,18.1290323 57.8271723,17.9464653 C57.8271723,17.8421414 57.8526164,17.7378174 57.8526164,17.6595745 C58.1325012,17.5813315 58.3869419,17.5291695 58.6413826,17.4509266 C58.768603,17.0857927 58.8703793,16.7206589 58.9721555,16.3555251 C59.2520403,16.3033631 59.5319251,16.2772821 59.8118099,16.2251201 C59.9644743,15.5209334 60.0916947,14.8167467 60.2443591,14.138641 C60.3715795,14.0864791 60.4733557,14.0603981 60.575132,14.0082361 C60.6260202,13.8778312 60.6769083,13.7474262 60.7277964,13.5909403 C61.0076812,13.4866163 61.287566,13.3562114 61.5674508,13.2518874 C61.7201152,12.8345916 61.8473356,12.4433768 62,12 C61.7455593,12.026081 61.6946711,12.026081 61.643783,12.052162 Z M44.5453673,23.7364447 L25.9457513,23.7364447 C25.9457513,22.5714939 25.9457513,21.8760009 25.9457513,21.6499657 C25.9457513,21.6238847 26.200192,21.5978037 26.200192,21.5717227 C26.200192,21.3891558 26.200192,21.2326699 26.200192,21.1022649 C26.200192,20.945779 26.200192,20.7892931 26.200192,20.6328071 C29.2534806,20.7371311 32.2558809,20.7632121 35.2328373,20.7371311 C38.2097936,20.7632121 41.4666347,20.7371311 44.2654825,20.6328071 C44.2654825,20.7892931 44.2654825,20.945779 44.2654825,21.1022649 C44.2654825,21.2587509 44.2654825,21.4152368 44.2654825,21.5717227 C44.2654825,21.5978037 44.5199232,21.6238847 44.5199232,21.6499657 C44.5368859,21.8760009 44.5453673,22.5714939 44.5453673,23.7364447 Z" id="Shape" fill="#111827"></path>
                </g>
            </g>
        </g>
    </g>
</svg>